<?xml version="1.0" encoding="UTF-8" standalone="no"?>
<!-- Creator: CorelDRAW SE -->

<svg
   xml:space="preserve"
   width="111.79891mm"
   height="115.92583mm"
   version="1.1"
   style="clip-rule:evenodd;fill-rule:evenodd;image-rendering:optimizeQuality;shape-rendering:geometricPrecision;text-rendering:geometricPrecision"
   viewBox="0 0 10550.095 10939.445"
   id="svg1704"
   sodipodi:docname="back_art.svg"
   inkscape:version="1.1.2 (b8e25be8, 2022-02-05)"
   xmlns:inkscape="http://www.inkscape.org/namespaces/inkscape"
   xmlns:sodipodi="http://sodipodi.sourceforge.net/DTD/sodipodi-0.dtd"
   xmlns="http://www.w3.org/2000/svg"
   xmlns:svg="http://www.w3.org/2000/svg"><sodipodi:namedview
   id="namedview1706"
   pagecolor="#ffffff"
   bordercolor="#666666"
   borderopacity="1.0"
   inkscape:pageshadow="2"
   inkscape:pageopacity="0.0"
   inkscape:pagecheckerboard="0"
   inkscape:document-units="mm"
   showgrid="false"
   fit-margin-top="0"
   fit-margin-left="0"
   fit-margin-right="0"
   fit-margin-bottom="0"
   inkscape:zoom="0.7020642"
   inkscape:cx="201.54852"
   inkscape:cy="329.74192"
   inkscape:window-width="1395"
   inkscape:window-height="831"
   inkscape:window-x="0"
   inkscape:window-y="25"
   inkscape:window-maximized="0"
   inkscape:current-layer="Vrstva_x0020_1" />
 <defs
   id="defs1284">
  <style
   type="text/css"
   id="style1282">
   <![CDATA[
    .fil0 {fill:#1C1C1C}
   ]]>
  </style>
 </defs>
 <g
   id="Vrstva_x0020_1"
   inkscape:label="Vrstva 1"
   inkscape:groupmode="layer"
   transform="translate(-11759.169,-8379.1933)">
  <metadata
   id="CorelCorpID_0Corel-Layer" />
  
  
  
  
  
  
  
  
  
  
  
  <g
   id="_601312080"
   transform="translate(-17379.831,8346.2464)">
   <path
   class="fil0"
   d="m 31084,9740 c -161,-167 -218,-607 19,-854 21,125 3,166 12,280 26,318 179,-42 -31,574 z m 1767,-1512 c -19,220 -146,474 -197,709 -44,199 8,177 -170,277 -107,60 -183,119 -289,175 -89,-141 74,-400 156,-682 99,-338 145,-430 500,-479 z m -1753,1765 c -5,-226 11,-96 79,-277 104,-281 14,-241 298,-392 153,-81 77,-132 182,-179 -18,101 -113,398 -154,516 -44,124 -290,290 -405,332 z m 1008,-542 c -231,87 -254,182 -524,240 28,-215 176,-477 253,-689 92,-252 72,-180 294,-366 97,-80 39,-42 161,-100 -46,143 -85,294 -129,443 -53,185 -142,296 -55,472 z M 30994,8061 c 27,161 101,444 61,589 -35,127 -104,404 -200,484 -15,-155 -135,-513 -121,-579 9,-39 80,-193 101,-241 58,-132 47,-179 159,-253 z m 3571,635 -226,-150 165,-493 249,29 c 5,158 -113,517 -188,614 z m -369,-180 c -151,-78 10,-98 -272,-114 l 141,-411 c 202,-23 164,19 320,41 -16,135 -88,399 -189,484 z m -1470,558 c 6,-146 203,-764 258,-926 l 463,-115 c -7,114 -149,596 -195,695 -52,114 -405,311 -526,346 z m 628,-374 c 24,-162 150,-495 232,-635 l 339,-80 c -61,381 -178,641 -571,715 z m 4740,-600 -177,-21 c -18,-137 74,-354 83,-537 158,37 161,52 168,220 5,115 -7,246 -74,338 z m -7357,265 c -97,-59 -90,-112 -127,-240 -40,-139 -10,-148 43,-276 47,-111 166,-378 227,-457 136,327 17,679 -143,973 z m 3949,355 c 47,-295 268,-998 598,-1049 -2,221 -99,429 -178,629 -92,231 -117,390 -420,420 z m 3099,-688 -261,-24 c -35,-89 55,-406 105,-524 24,-56 9,-24 40,-66 l 232,68 c 30,155 -30,427 -116,546 z m -404,-71 -249,27 c 11,-179 127,-541 216,-663 l 201,52 c -6,171 -85,461 -168,584 z m -2194,399 c 32,-240 183,-467 224,-786 125,-74 176,-130 329,-173 -21,193 -93,417 -137,610 -60,266 -126,220 -156,231 -123,45 -162,82 -260,118 z m 1839,-387 -302,7 226,-712 c 87,-6 44,-10 128,10 l 123,48 c -18,226 -127,425 -175,647 z m -425,40 -417,58 c 10,-125 223,-752 289,-842 l 343,35 c -26,278 -159,495 -215,749 z m -565,74 -360,80 c 29,-187 130,-781 292,-878 102,-61 236,-62 357,-72 -26,217 -169,566 -257,797 z m -5466,-298 c -140,-225 30,-694 218,-866 105,182 50,276 -34,462 -47,103 -96,299 -184,404 z m -94,-510 -73,-141 c -13,-51 -23,-92 -36,-142 -28,-108 -26,-219 11,-326 61,-176 162,-368 245,-539 94,114 37,88 96,303 29,110 61,208 31,323 -23,92 -218,453 -274,522 z m -137,-655 -47,-45 c -99,-145 -113,-353 -42,-506 34,-72 240,-415 286,-465 l 24,41 c 112,305 -56,542 -221,975 z m -180,-604 c -56,-228 -73,-288 44,-494 69,-120 143,-269 242,-360 104,188 42,278 -41,464 -44,101 -162,331 -245,390 z m -120,-409 c -25,-275 -61,-217 56,-474 46,-101 143,-286 225,-370 131,176 76,287 -34,462 -63,98 -169,312 -247,382 z m -54,-397 c -111,-116 -131,-352 -39,-508 73,-123 163,-312 239,-393 213,338 -102,574 -200,901 z m -134,-532 c -87,-136 -125,-292 -53,-435 66,-130 117,-239 195,-365 337,220 -142,800 -142,800 z m -118,-499 c -61,-67 -119,-275 -89,-369 26,-79 151,-265 207,-316 123,120 136,185 51,349 -57,111 -102,243 -169,336 z m -135,-484 c -180,-181 -53,-471 97,-628 162,194 52,430 -97,628 z m -163,-420 -67,-199 c 65,-83 111,-196 202,-247 92,104 78,101 14,228 -62,124 -39,140 -149,218 z m 163,-1044 c 98,-245 501,-492 738,-613 170,-86 282,-163 477,-212 260,-66 211,-159 556,-103 207,34 349,4 597,56 539,111 844,134 1350,374 152,72 53,29 209,9 59,255 102,509 146,768 38,223 140,499 174,723 76,506 221,1010 302,1525 103,656 406,2512 556,3074 -112,-13 -534,-180 -947,-165 -312,10 -686,56 -981,146 -680,207 -1094,840 -1332,916 -84,-97 -104,-771 -105,-939 -2,-190 -443,-2365 -496,-2621 -81,-398 -388,-1145 -557,-1532 l -543,-1020 c -60,-117 -96,-289 -144,-386 z m 4134,-432 c 303,-217 492,-564 813,-812 286,-221 329,-109 566,-246 145,-84 423,-197 586,-258 265,-99 1247,-187 1362,134 158,442 250,846 359,1301 109,454 172,932 235,1395 54,399 182,919 240,1414 51,434 176,941 278,1368 52,217 289,1206 237,1345 -157,-2 -186,-136 -365,-217 -2209,-1011 -2855,341 -3195,386 -4,-252 -4,-596 -49,-839 -14,-74 -30,-80 -41,-159 l -447,-2783 c -63,-228 -116,-462 -182,-692 -67,-234 -126,-437 -180,-695 -33,-154 -76,-201 -109,-333 -32,-130 -22,-231 -108,-309 z m -226,-148 c -354,-124 -59,-246 -1144,-458 -1019,-198 -1546,-274 -2474,388 -648,463 -501,611 -395,1040 -162,66 -286,263 -354,422 215,310 605,2559 748,3217 32,148 100,277 136,463 118,595 315,1247 446,1825 74,324 413,1519 568,1728 l 103,-49 c 91,-22 81,36 262,-75 l 721,-436 c 165,-100 590,-255 785,-371 420,-250 409,-204 794,-393 133,-65 257,-169 397,-214 138,125 206,192 408,233 477,98 565,216 900,-186 168,-202 143,-152 252,-397 303,13 439,-115 720,-108 397,9 910,-66 1469,-28 380,26 421,192 633,227 -43,-491 -307,-779 146,-933 3,-153 -47,-292 -71,-442 l -106,-676 c -35,-284 57,53 -93,-618 -56,-248 -129,-617 -160,-868 -86,-684 -177,-1118 -316,-1773 -28,-134 -84,-267 -102,-407 -21,-172 -26,-290 -70,-461 -71,-271 -129,-567 -194,-843 -33,-139 -85,-262 -120,-403 -44,-183 -84,-237 -135,-396 l 58,-107 c -205,-286 -635,-443 -976,-496 -462,-72 -845,3 -1250,173 -1274,532 -1406,1266 -1586,1422 z"
   id="path1309" />
   <path
   class="fil0"
   d="m 35166,6788 c 119,-54 677,-456 1130,-612 631,-218 1224,129 1386,143 -25,-163 -110,-144 -251,-198 -125,-49 -193,-106 -327,-136 -786,-174 -1958,452 -1938,803 z"
   id="path1311" />
   <path
   class="fil0"
   d="m 35165,5105 c 212,59 279,-147 446,-266 87,-62 436,-211 555,-259 670,-276 1210,-51 1294,-99 -16,-183 -450,-206 -612,-203 -584,10 -1389,326 -1683,827 z"
   id="path1313" />
   <path
   class="fil0"
   d="m 34323,2017 85,81 c 108,-74 91,-122 163,-201 l 651,-508 c 703,-401 1004,-76 1222,-247 -148,-219 -906,-92 -1290,89 -193,91 -332,197 -452,356 -113,151 -318,241 -379,430 z"
   id="path1315" />
   <path
   class="fil0"
   d="m 35231,5880 c 146,-39 285,-234 418,-316 239,-145 843,-338 1192,-324 171,7 532,92 648,-6 -136,-89 -444,-146 -627,-163 -575,-54 -1656,442 -1631,809 z"
   id="path1317" />
   <path
   class="fil0"
   d="m 31571,7190 c 83,-37 346,-254 469,-331 281,-175 262,-144 572,-241 509,-160 643,-186 1047,-97 72,15 78,54 111,-22 47,-107 -13,-64 -93,-89 -582,-182 -758,-70 -1292,111 -431,147 -464,262 -749,467 -85,61 -142,109 -65,202 z"
   id="path1319" />
   <path
   class="fil0"
   d="m 30863,3984 61,80 c 67,-38 93,-74 195,-126 566,-290 1002,-577 1725,-388 140,36 151,102 287,28 -26,-141 -102,-92 -258,-145 -266,-89 -713,-149 -985,-32 -275,119 -881,334 -1025,583 z"
   id="path1321" />
   <path
   class="fil0"
   d="m 31139,4921 c 133,83 95,-9 488,-226 188,-104 320,-181 528,-255 343,-121 1022,-177 1288,119 80,-74 44,-48 72,-52 -921,-790 -2272,143 -2376,414 z"
   id="path1323" />
   <path
   class="fil0"
   d="m 34549,2548 59,79 c 147,-30 413,-374 768,-556 165,-85 342,-148 533,-163 160,-12 519,76 618,12 -205,-312 -1261,-147 -1621,246 -82,89 -322,303 -357,382 z"
   id="path1325" />
   <path
   class="fil0"
   d="m 34801,4161 c 131,-8 692,-378 780,-419 228,-105 700,-203 957,-221 94,-7 226,-43 322,-14 109,33 184,107 261,-18 -213,-277 -1045,-72 -1325,10 -189,55 -393,175 -549,291 -75,56 -170,112 -236,169 -84,72 -113,128 -210,202 z"
   id="path1327" />
   <path
   class="fil0"
   d="m 34752,3300 c 134,58 370,-368 918,-530 122,-36 163,-77 270,-107 489,-137 763,69 896,10 -40,-137 -521,-209 -551,-210 -562,-11 -1607,593 -1533,837 z"
   id="path1329" />
   <path
   class="fil0"
   d="m 31340,5683 c 300,-71 324,-374 894,-507 253,-59 431,-220 895,-69 113,38 173,101 267,25 -32,-147 -422,-183 -572,-210 -383,-71 -348,30 -640,117 -217,64 -954,423 -844,644 z"
   id="path1331" />
   <path
   class="fil0"
   d="m 31418,6410 c 217,-35 398,-374 648,-461 137,-47 144,-68 257,-120 295,-137 993,-96 1276,77 137,-146 86,-156 -401,-266 -258,-58 -557,-43 -800,19 -173,44 -443,188 -559,313 -79,84 -380,368 -421,438 z"
   id="path1333" />
   <path
   class="fil0"
   d="m 30439,2551 c 179,-61 210,-166 463,-238 219,-63 388,-64 574,-109 339,-84 989,52 1254,40 2,-7 63,-35 -29,-104 -133,-97 -1040,-107 -1214,-71 -294,61 -912,163 -1048,482 z"
   id="path1335" />
   <path
   class="fil0"
   d="m 30683,3306 c 17,-4 373,-192 453,-227 258,-113 869,-273 1151,-255 442,29 513,187 509,-11 -194,-170 -876,-143 -1210,-27 -213,73 -851,293 -903,520 z"
   id="path1337" />
   <path
   class="fil0"
   d="m 31714,7826 c 126,52 310,-157 406,-231 191,-146 295,-169 491,-260 72,-34 139,-95 218,-128 396,-169 838,-55 950,-102 -70,-231 -782,-191 -1156,90 -162,123 -330,128 -504,277 -146,125 -273,245 -405,354 z"
   id="path1339" />
  </g>
  
  
  
  
  
  
  
  
  
  
  
  
  
  
  
  
  
  
  
  
  
  <g
   id="_601308624"
   transform="matrix(0.40070041,0.26726284,-0.23801645,0.35685203,12940.438,9451.91)">
   <path
   class="fil0"
   d="m 18753,4867 322,24 c 2,145 40,284 39,427 -2,211 -70,1031 152,1202 l 66,-109 c -171,-537 -89,-927 -109,-1481 502,46 690,-24 1195,23 542,50 710,47 1222,45 439,-1 874,-14 1312,-9 296,4 1041,-109 1237,-4 159,138 705,3125 -528,4165 -249,209 -559,355 -865,452 -699,219 -1700,226 -2404,153 -227,-23 -863,-156 -1048,-265 l -281,-410 c -567,-791 -207,-2049 -240,-2357 -24,-218 30,-463 18,-637 -6,-92 -43,-223 -43,-299 0,-86 32,-206 25,-313 -8,-127 -36,-153 -23,-306 12,-139 -33,-155 -47,-301 z m 4368,-254 c -370,-44 -2756,-48 -3239,-37 35,-152 -5,-70 -8,-227 -4,-182 25,-97 92,-235 172,-352 -220,-522 270,-1539 211,-438 782,-1144 1281,-1233 378,-67 596,-144 883,219 472,596 518,1154 562,1946 22,385 92,732 159,1106 z m -4277,-6 c 6,-274 82,-576 77,-851 -10,-437 -30,-355 122,-751 70,-184 148,-451 216,-650 137,-405 443,-761 686,-1105 246,-346 691,-561 723,-590 95,-84 130,-128 246,-193 586,-329 1480,-434 2097,-114 315,163 303,93 447,434 245,581 351,1585 421,2204 30,269 59,557 54,827 -6,248 -37,586 49,814 l -653,-71 c -11,-140 -10,-229 -2,-368 21,-417 62,-177 28,-877 -6,-133 27,-132 0,-312 -99,-663 -85,-338 -227,-801 -101,-330 -316,-608 -591,-809 -386,-282 -549,-362 -1046,-283 -282,45 -711,289 -916,487 -265,255 -408,486 -637,765 -165,201 -373,710 -437,967 -129,523 -84,737 -32,1251 -222,27 -396,46 -625,26 z m -107,23 -219,-7 c -7,447 -72,861 -78,1100 -26,1264 -634,2567 670,3809 306,291 388,313 771,446 485,169 909,327 1450,335 865,11 1697,27 2433,-469 622,-419 785,-722 974,-1424 174,-651 199,-1458 138,-2126 -20,-221 -81,-837 -171,-1015 -35,-69 -82,-106 -116,-163 -219,-365 -245,-246 -499,-436 l 131,-26 c 262,-1104 81,-2240 -187,-3326 C 23911,829 23749,455 23248,245 22697,15 22236,-28 21642,14 c -1055,75 -1637,798 -2151,1622 -391,628 -726,1355 -709,2120 7,286 -84,578 -45,874 z"
   id="path1594" />
   <path
   class="fil0"
   d="m 21283,8519 c 18,-104 91,-292 145,-383 79,-134 80,-243 191,-328 -22,233 -78,652 -336,711 z m -132,-90 c -145,-207 291,-1027 461,-1174 21,235 -78,438 -176,637 -62,127 -190,489 -285,537 z m -49,-512 c 3,-181 64,-413 95,-599 47,-293 314,-647 481,-899 69,-104 210,-361 286,-424 14,616 -248,704 -384,1008 -79,176 -382,823 -478,914 z m 89,-933 c -26,-235 -49,-171 53,-405 l 495,-923 c 204,142 151,142 51,339 -121,237 -423,860 -599,989 z m -535,-900 c -40,-156 64,-277 202,-305 -23,65 -47,112 -78,175 -71,146 -6,76 -124,130 z m 263,362 c -237,-87 -112,-173 -83,-267 140,-457 236,-716 822,-560 -205,250 -446,931 -583,1071 -234,-311 343,-806 335,-1087 -247,26 -394,694 -491,843 z m 192,-1093 c -1392,371 -345,1025 -266,1517 68,422 -79,886 1,1278 158,767 834,774 931,187 100,-603 -77,-1250 172,-1460 153,-128 82,-10 144,-198 143,-431 241,-619 -71,-992 -180,-217 -636,-405 -911,-332 z"
   id="path1596" />
   <path
   class="fil0"
   d="m 23983,6874 c 162,-175 170,-1087 156,-1370 -7,-157 -17,-330 -204,-299 -16,138 46,245 53,394 l -25,942 c -25,171 -121,271 20,333 z"
   id="path1598" />
   <path
   class="fil0"
   d="m 23118,9181 c 167,-65 130,-120 265,-216 228,-164 710,-539 650,-825 -143,-11 -153,133 -226,249 -235,374 -729,519 -689,792 z"
   id="path1600" />
   <path
   class="fil0"
   d="m 23589,6712 c 230,-23 182,-731 161,-915 -218,43 -107,218 -112,426 -3,124 -96,412 -49,489 z"
   id="path1602" />
   <path
   class="fil0"
   d="m 22422,472 c 98,54 114,38 196,86 71,41 84,67 166,114 159,92 201,284 323,202 46,-126 -484,-536 -638,-528 z"
   id="path1604" />
   <path
   class="fil0"
   d="m 19516,6089 c 124,-109 56,-207 54,-396 l -15,-381 c -39,-136 27,-43 -74,-94 -86,80 -38,777 35,871 z"
   id="path1606" />
   <path
   class="fil0"
   d="m 19829,5915 c 95,-78 111,-314 43,-422 -69,86 -100,313 -43,422 z"
   id="path1608" />
   <path
   class="fil0"
   d="m 23460,8434 c 85,-10 139,-30 118,-116 -39,-25 46,-32 -103,-31 z"
   id="path1610" />
   <path
   class="fil0"
   d="m 23234,1164 c -13,-131 10,-5 -32,-66 -161,32 -107,129 22,146 11,-51 16,-18 10,-80 z"
   id="path1612" />
   <path
   class="fil0"
   d="m 23416,1577 c -10,-41 -29,-36 -61,-57 -78,55 -86,101 34,149 11,-18 56,38 27,-92 z"
   id="path1614" />
   <path
   class="fil0"
   d="m 23187,6410 c 54,85 24,64 118,42 l 10,-116 c -75,4 -107,11 -128,74 z"
   id="path1616" />
   <path
   class="fil0"
   d="m 23202,6789 c 100,-59 78,-9 31,-108 -65,41 -109,9 -31,108 z"
   id="path1618" />
   <path
   class="fil0"
   d="m 23345,8622 c 0,-10 -9,-11 -14,-16 -51,73 -42,5 -4,85 z"
   id="path1620" />
  </g>
  
  
 </g>
</svg>
