<?xml version="1.0" encoding="UTF-8" standalone="no"?>
<!-- Created with Inkscape (http://www.inkscape.org/) -->

<svg
   width="113.33262mm"
   height="102.0237mm"
   viewBox="0 0 113.33262 102.0237"
   version="1.1"
   id="svg5"
   inkscape:version="1.1.2 (b8e25be8, 2022-02-05)"
   sodipodi:docname="title.svg"
   xmlns:inkscape="http://www.inkscape.org/namespaces/inkscape"
   xmlns:sodipodi="http://sodipodi.sourceforge.net/DTD/sodipodi-0.dtd"
   xmlns="http://www.w3.org/2000/svg"
   xmlns:svg="http://www.w3.org/2000/svg">
  <sodipodi:namedview
     id="namedview7"
     pagecolor="#ffffff"
     bordercolor="#666666"
     borderopacity="1.0"
     inkscape:pageshadow="2"
     inkscape:pageopacity="0.0"
     inkscape:pagecheckerboard="0"
     inkscape:document-units="mm"
     showgrid="false"
     fit-margin-top="0"
     fit-margin-left="0"
     fit-margin-right="0"
     fit-margin-bottom="0"
     inkscape:zoom="0.55678311"
     inkscape:cx="256.8325"
     inkscape:cy="176.01109"
     inkscape:window-width="1354"
     inkscape:window-height="792"
     inkscape:window-x="0"
     inkscape:window-y="25"
     inkscape:window-maximized="0"
     inkscape:current-layer="layer1" />
  <defs
     id="defs2" />
  <g
     inkscape:label="Layer 1"
     inkscape:groupmode="layer"
     id="layer1"
     transform="translate(-37.074093,-102.25651)">
    <g
       aria-label="Zoë's
Secret
Diary"
       id="text1816"
       style="font-size:25.4px;line-height:1.25;font-family:'Party LET';-inkscape-font-specification:'Party LET';text-align:center;text-anchor:middle;stroke-width:0.264583">
      <path
         d="m 75.149285,102.25651 q 3.534668,0.0992 3.534668,0.66972 0.682128,0.84336 0.682128,2.74092 v 1.27744 q 0,1.78594 -1.203027,3.03858 -2.257226,2.87734 -8.718847,9.30175 h -0.06201 v 0.062 h 0.06201 l 5.990332,-0.18604 q 2.244824,0 2.852539,1.10381 0.905371,2.1332 0.905371,6.32519 l 0.06201,0.42168 q 0,2.13321 -1.029394,2.79053 -1.141016,0.31006 -2.567285,0.31006 -14.386719,-0.18603 -22.411035,-0.48369 -1.302246,-0.34727 -1.302246,-0.85576 -0.347266,-0.5209 -0.347266,-2.00918 v -3.1626 q 0.02481,-1.99678 0.917774,-3.22461 2.678906,-2.25723 6.784082,-4.31601 l 6.895703,-4.06797 v -0.062 l -12.53877,-0.43408 q -1.314648,0 -1.314648,-1.88515 0.42168,-6.74688 1.53789,-6.74688 0,-0.21084 15.341699,-0.42168 2.666504,-0.18603 5.928322,-0.18603 z"
         style="font-weight:bold;font-family:MLP;-inkscape-font-specification:'MLP Bold'"
         id="path7994" />
      <path
         d="m 89.523601,112.84811 q 3.881934,0 5.531446,1.81074 0.892968,0.57051 1.339453,1.5751 0.520898,0.94258 0.806152,2.76572 0.223242,0.75654 0.359668,5.03535 v 0.23565 q 0,3.07578 -1.661914,4.31601 -1.029395,0.90537 -2.889746,1.31465 -1.116211,0.26045 -2.108399,0.26045 -1.835546,0 -4.353222,-0.69453 -1.116211,-0.40928 -1.996777,-1.11621 -0.830957,-0.57051 -1.153418,-1.5503 -0.545704,-1.95957 -0.545704,-4.10517 v -0.23565 q 0,-2.98896 0.644922,-5.65546 0.768946,-2.34405 2.120801,-3.12539 1.413867,-0.83096 3.906738,-0.83096 z m 2.22002,9.04131 q -0.607715,-0.31006 -1.066602,-0.31006 h -0.04961 q -0.917774,0 -1.203027,1.19062 l -0.0124,0.26045 q 0,0.73174 0.731738,1.42627 1.091407,0.74414 2.319239,1.24024 l 0.136426,0.0496 q 1.723925,-2.39366 1.723925,-3.77032 v -0.24804 q 0,-0.43409 -0.644922,-0.79375 -0.173632,-0.0744 -0.409277,-0.0744 -1.103809,0 -1.525488,1.0294 z"
         style="font-weight:bold;font-family:MLP;-inkscape-font-specification:'MLP Bold'"
         id="path7996" />
      <path
         d="m 114.52673,111.38463 q 0.79375,0 0.91777,0.27285 0.26045,0.42168 0.26045,1.25264 v 0.0248 q 0,1.90997 -0.45889,3.00137 -0.16123,0.40928 -1.27744,0.40928 l -0.5457,0.0372 -6.22598,-0.16123 v 0.0124 l 0.0372,2.19521 0.0372,0.16123 q 5.44462,0.062 5.44462,0.17364 0.66973,0.31005 0.66973,1.16582 v 0.18603 l 0.0124,1.83555 q 0,0.69453 -0.65732,0.79375 0,0.0992 -5.32061,0.16123 l 0.12403,2.43086 5.55625,-0.16123 q 1.71152,0 1.71152,0.33486 0.45889,0.71934 0.45889,1.71152 0.0992,0.65733 0.0992,1.40147 v 0.0248 q 0,1.22784 -0.5085,1.46348 -0.35967,0.062 -0.71934,0.062 l -10.98847,-0.29765 q -2.00918,-0.0868 -2.00918,-0.35967 -0.29766,-0.33487 -0.29766,-1.27744 0.0992,-4.27881 0.0992,-7.70186 v -0.39687 l 0.0248,-0.0248 -0.0248,-0.0124 0.0248,-0.31006 q 0.11163,-7.60264 0.40928,-7.60264 0.14883,-0.33486 0.43408,-0.33486 0.94258,-0.22324 11.94346,-0.44648 z m -9.67383,-2.39365 0.88056,-0.89297 q 0.16124,-0.14883 0.31006,-0.14883 0.13643,0 0.33487,0.17364 l 0.85576,0.90537 q 0.12402,0.17363 0.12402,0.31005 0,0.16124 -0.14883,0.33487 l -0.85576,0.93017 q -0.21084,0.21084 -0.31006,0.21084 -0.17363,0 -0.31006,-0.14882 l -0.94257,-1.06661 q -0.11162,-0.14882 -0.11162,-0.28525 0,-0.16123 0.17363,-0.32246 z m 4.52685,0 0.88057,-0.89297 q 0.16123,-0.14883 0.31006,-0.14883 0.13642,0 0.33486,0.16123 l 0.85576,0.91778 q 0.12403,0.17363 0.12403,0.31005 0,0.16124 -0.14883,0.32247 l -0.85576,0.94257 q -0.21084,0.21084 -0.31006,0.21084 -0.17363,0 -0.31006,-0.14882 l -0.94258,-1.07901 q -0.11162,-0.13642 -0.11162,-0.27285 0,-0.16123 0.17363,-0.32246 z"
         style="font-weight:bold;font-family:MLP;-inkscape-font-specification:'MLP Bold'"
         id="path7998" />
      <path
         d="m 119.33884,111.2358 h -0.37207 l -0.76895,-4.45244 q -0.0496,-0.28525 -0.0496,-0.40928 0,-0.45888 0.24805,-0.70693 0.26045,-0.24805 0.74414,-0.24805 0.48369,0 0.74414,0.24805 0.27285,0.23565 0.27285,0.69453 0,0.0992 -0.0496,0.42168 z"
         style="font-weight:bold;font-family:MLP;-inkscape-font-specification:'MLP Bold'"
         id="path8000" />
      <path
         d="m 129.45915,113.13336 q 3.89433,0 5.8663,1.12862 0.33487,0.21084 0.33487,0.5581 v 0.18604 q 0,1.32705 -0.68213,2.26962 -0.62012,0.97979 -0.90537,0.97979 -0.12403,0 -1.62471,-0.68213 -1.11621,-0.45889 -2.87734,-0.45889 -2.03399,0 -2.50528,0.99219 -0.11162,0.26045 -0.11162,0.5209 v 0.17363 q 0,1.28985 2.02158,1.5503 0.85577,0.0868 3.11299,0.0868 0.64492,0.0248 1.67432,0.32246 1.02939,0.38448 1.73633,1.07901 0.70693,0.84336 0.70693,2.04638 v 0.19844 q 0,1.48828 -0.34727,3.43545 -0.14882,0.60772 -0.43408,1.0666 -0.34726,0.62012 -1.42627,0.95498 -0.73174,0.31006 -7.10654,0.58291 l -0.95498,0.0124 h -0.66973 q -1.0666,0 -1.0666,-0.28526 -0.16123,-0.48369 -0.16123,-1.20303 v -0.34726 q 0,-1.68672 0.85576,-2.81533 l 0.0744,-0.0372 h 0.0124 l 2.40605,0.5209 q 1.40147,0.31006 2.49287,0.31006 1.94717,0 1.94717,-1.24024 v -0.11162 q 0,-1.27744 -0.86816,-1.6123 -0.37207,-0.12403 -0.80615,-0.12403 -0.47129,0 -3.1502,0.39688 l -0.71933,0.0248 q -2.34405,0 -2.98897,-1.88515 -0.44648,-1.31465 -0.44648,-2.95176 v -0.27285 q 0,-1.89756 0.62011,-3.44785 0.22325,-0.58291 1.22784,-1.0294 1.84794,-0.89297 4.7625,-0.89297 z"
         style="font-weight:bold;font-family:MLP;-inkscape-font-specification:'MLP Bold'"
         id="path8002" />
      <path
         d="m 49.14157,139.22271 q 7.106543,0 10.69082,1.84795 0.620118,0.33486 0.620118,0.90537 v 0.29765 q 0,2.17041 -1.252637,3.7083 -1.116211,1.5875 -1.649512,1.5875 -0.235644,0 -2.96416,-1.11621 -2.021582,-0.73174 -5.246191,-0.73174 -3.720703,0 -4.576465,1.61231 -0.198438,0.42168 -0.198438,0.85576 v 0.28525 q 0,2.1084 3.683496,2.51768 1.550293,0.14883 5.680274,0.14883 1.178222,0.0248 3.063379,0.5209 1.872754,0.63252 3.162597,1.76113 1.289844,1.36426 1.289844,3.33623 v 0.32246 q 0,2.41846 -0.63252,5.59346 -0.285253,1.00459 -0.781347,1.76113 -0.644922,0.99219 -2.604492,1.55029 -1.339453,0.4961 -12.960449,0.94258 l -1.748731,0.0248 h -1.227832 q -1.947168,0 -1.947168,-0.47129 Q 39.2445,165.7017 39.2445,164.52348 v -0.55811 q 0,-2.76572 1.550293,-4.60127 l 0.136426,-0.0496 h 0.03721 l 4.378027,0.84336 q 2.567285,0.4961 4.55166,0.4961 3.571875,0 3.571875,-2.02159 v -0.17363 q 0,-2.07119 -1.5875,-2.6293 -0.694531,-0.21084 -1.488281,-0.21084 -0.843359,0 -5.729883,0.64493 l -1.327051,0.062 q -4.266406,0 -5.444628,-3.07578 -0.818555,-2.14561 -0.818555,-4.83692 v -0.43408 q 0,-3.10059 1.116211,-5.61826 0.434082,-0.94258 2.244824,-1.67432 3.373437,-1.46347 8.706445,-1.46347 z"
         style="font-weight:bold;font-family:MLP;-inkscape-font-specification:'MLP Bold'"
         id="path8004" />
      <path
         d="m 78.956805,148.32603 q 0.79375,0 0.917773,0.27285 0.26045,0.42168 0.26045,1.25263 v 0.0248 q 0,1.90996 -0.458887,3.00137 -0.161231,0.40927 -1.277442,0.40927 l -0.545703,0.0372 -6.225976,-0.16123 v 0.0124 l 0.03721,2.19522 0.03721,0.16123 q 5.444629,0.062 5.444629,0.17363 0.669726,0.31006 0.669726,1.16582 v 0.18604 l 0.0124,1.83554 q 0,0.69453 -0.657325,0.79375 0,0.0992 -5.320605,0.16123 l 0.124023,2.43086 5.55625,-0.16123 q 1.711524,0 1.711524,0.33487 0.458887,0.71933 0.458887,1.71152 0.09922,0.65732 0.09922,1.40146 v 0.0248 q 0,1.22783 -0.508496,1.46348 -0.359668,0.062 -0.719336,0.062 l -10.988476,-0.29766 q -2.00918,-0.0868 -2.00918,-0.35967 -0.297656,-0.33486 -0.297656,-1.27744 0.09922,-4.27881 0.09922,-7.70185 v -0.39688 l 0.0248,-0.0248 -0.0248,-0.0124 0.0248,-0.31005 q 0.111621,-7.60264 0.409278,-7.60264 0.148828,-0.33486 0.434082,-0.33486 0.942578,-0.22325 11.943457,-0.44649 z"
         style="font-weight:bold;font-family:MLP;-inkscape-font-specification:'MLP Bold'"
         id="path8006" />
      <path
         d="m 92.165302,149.7895 q 2.728516,0 4.799707,0.85576 0.84336,0.38448 0.84336,1.26504 v 0.21084 q 0,1.16582 -0.954981,2.57969 -0.508496,0.64492 -1.066601,0.64492 -0.42168,0 -1.599903,-0.78134 -1.066601,-0.4961 -2.38125,-0.4961 h -0.272851 q -2.939356,0 -3.894336,2.57969 -0.248047,0.73174 -0.248047,1.5999 v 0.062 q 0,2.18282 1.810742,3.79512 0.880567,0.69453 1.736328,0.79375 0.409278,0.0868 1.091406,0.13643 1.389063,0 3.001368,-1.07901 0.632519,-0.29765 1.066601,-0.29765 0.781348,0 1.141016,1.0914 0.409277,1.0418 0.409277,2.17041 v 0.24805 q 0,1.00459 -0.458887,1.38906 -0.446484,0.22324 -1.289843,0.37207 -1.451075,0.23565 -2.716114,0.23565 -7.453808,0 -9.711035,-6.02754 -0.496093,-1.48828 -0.496093,-2.91455 0,-3.63389 2.75332,-6.3128 1.128613,-0.91777 1.909961,-1.24023 1.872754,-0.88057 4.526855,-0.88057 z"
         style="font-weight:bold;font-family:MLP;-inkscape-font-specification:'MLP Bold'"
         id="path8008" />
      <path
         d="m 105.08854,148.36323 q 3.28662,0 4.31602,0.5209 0.5705,0.062 2.20761,0.80615 1.62471,0.81856 2.48047,3.1626 0.54571,1.68672 0.54571,3.36104 v 0.44648 q 0,3.63389 -2.84014,5.10977 -0.90537,0.43408 -2.84014,0.39687 l -1.98437,-0.0992 q -0.65733,0 -0.76895,0.45889 l -0.0496,0.45889 0.0496,1.38906 q 0,0.91777 -0.44648,1.26504 -0.39688,0.31006 -3.175,1.17822 -0.60772,0.24805 -1.0542,0.24805 -0.60772,0 -0.73174,-1.32705 -0.26045,-1.09141 -0.26045,-5.34541 0,-1.10381 -0.18603,-7.78867 0,-3.02618 0.75654,-3.6835 0.57051,-0.5457 2.55488,-0.5457 z m 6.23838,6.38721 q -0.69453,0 -1.12861,0.76895 -0.64492,-0.33487 -1.10381,-0.33487 -0.91778,0 -1.14102,0.94258 v 0.19844 q 0,1.10381 2.13321,2.1456 0.31005,0.17364 0.44648,0.19844 0.38447,-0.0496 1.35186,-1.40146 0.5457,-0.94258 0.5457,-1.64952 0,-0.86816 -0.93018,-0.86816 h -0.0248 l -0.0124,-0.0248 -0.0248,0.0248 z m 1.79834,5.8291 -0.0124,0.17363 q 0,0.27286 0.59531,1.97198 0.60772,1.30224 0.85576,2.09599 0.062,0.27285 0.062,0.48369 v 0.0868 q 0,0.66973 -0.68213,0.85576 -0.96738,0.32246 -2.19521,0.32246 h -0.062 l -0.0744,0.0248 -0.0868,-0.0248 h -0.0372 v 0.0248 l -0.0992,-0.0248 h -0.34726 l -0.0744,-0.0248 -0.0248,0.0248 q -0.86817,-0.0868 -1.28985,-0.28525 -0.75654,-0.43408 -1.30224,-2.40605 -0.19844,-1.07901 -0.55811,-1.63711 -0.27285,-0.19844 -0.49609,-0.19844 l -0.24805,0.0372 v -0.0124 q 0,-0.0744 0.21084,-0.0992 h 0.0372 l 1.31465,0.0248 0.69453,0.0992 q 1.99678,0.16123 3.59668,-1.27744 z"
         style="font-weight:bold;font-family:MLP;-inkscape-font-specification:'MLP Bold'"
         id="path8010" />
      <path
         d="m 131.19547,148.32603 q 0.79375,0 0.91778,0.27285 0.26045,0.42168 0.26045,1.25263 v 0.0248 q 0,1.90996 -0.45889,3.00137 -0.16123,0.40927 -1.27744,0.40927 l -0.54571,0.0372 -6.22597,-0.16123 v 0.0124 l 0.0372,2.19522 0.0372,0.16123 q 5.44463,0.062 5.44463,0.17363 0.66973,0.31006 0.66973,1.16582 v 0.18604 l 0.0124,1.83554 q 0,0.69453 -0.65732,0.79375 0,0.0992 -5.32061,0.16123 l 0.12402,2.43086 5.55625,-0.16123 q 1.71153,0 1.71153,0.33487 0.45888,0.71933 0.45888,1.71152 0.0992,0.65732 0.0992,1.40146 v 0.0248 q 0,1.22783 -0.50849,1.46348 -0.35967,0.062 -0.71934,0.062 l -10.98848,-0.29766 q -2.00918,-0.0868 -2.00918,-0.35967 -0.29765,-0.33486 -0.29765,-1.27744 0.0992,-4.27881 0.0992,-7.70185 v -0.39688 l 0.0248,-0.0248 -0.0248,-0.0124 0.0248,-0.31005 q 0.11162,-7.60264 0.40928,-7.60264 0.14883,-0.33486 0.43408,-0.33486 0.94258,-0.22325 11.94346,-0.44649 z"
         style="font-weight:bold;font-family:MLP;-inkscape-font-specification:'MLP Bold'"
         id="path8012" />
      <path
         d="m 136.44167,148.54927 h 12.11709 q 1.66191,0 1.66191,0.5209 0.18604,0.34726 0.18604,0.99218 0,1.95957 -0.5333,3.62149 -0.31006,0.47129 -1.09141,0.47129 l -1.38906,-0.0372 v -0.0372 l -0.0496,0.0372 -0.13643,-0.0372 -1.97197,-0.0744 -0.45889,0.0744 0.34727,10.95127 q 0,1.5875 -0.4961,1.5875 -1.0666,0.55811 -3.16259,0.55811 h -0.12403 q -1.50068,0 -1.50068,-0.95498 l -0.0372,-0.63252 0.18604,-11.54658 -0.14883,-0.0372 -3.62148,0.14883 q -1.14102,-0.0868 -1.14102,-0.63252 -0.48369,-1.43867 -0.48369,-3.42305 v -0.0372 q 0,-1.47587 0.90537,-1.47587 z"
         style="font-weight:bold;font-family:MLP;-inkscape-font-specification:'MLP Bold'"
         id="path8014" />
      <path
         d="m 59.770379,176.05248 q 2.96416,0 7.329785,1.84795 7.09414,3.46025 7.09414,14.22549 0,7.00732 -5.233789,10.40556 -3.410644,1.53789 -9.636621,1.53789 h -2.926953 q -5.76709,0 -7.267773,-1.97197 -0.471289,-0.5209 -0.669727,-5.79189 -0.285254,-6.30039 -0.285254,-9.16533 v -3.57188 q 0,-5.64307 1.909961,-6.70967 1.277442,-0.74414 3.274219,-0.74414 h 0.16123 z m 4.948535,17.09043 h -0.06201 q -1.413867,-0.59531 -2.120801,-0.59531 h -0.06201 q -1.661915,0 -2.480469,2.05879 l -0.06201,0.49609 q 0,1.95957 4.378027,4.40283 1.451075,0.59531 2.00918,0.59531 1.438672,-0.50849 3.125391,-3.37343 0.595312,-1.21543 0.595312,-2.05879 v -0.54571 q 0,-1.6123 -1.835547,-2.17041 l -1.240234,-0.16123 q -1.451074,0 -2.244824,1.35186 z"
         style="font-weight:bold;font-family:MLP;-inkscape-font-specification:'MLP Bold'"
         id="path8016" />
      <path
         d="m 82.975164,185.20541 q 0.979785,0 1.426269,1.11621 0.124023,0.40928 0.124023,0.88057 0,1.25263 -2.058789,3.46025 -0.409277,0 -2.765722,-1.09141 -1.389063,-0.76894 -1.736328,-1.5875 l -0.124024,-0.37207 v -0.23564 q 0.347266,-1.28984 1.736328,-1.28984 0.496094,0 1.302246,0.19843 v -0.0248 q 0.706934,-1.0542 2.095997,-1.0542 z m -1.736329,5.72988 h 0.595313 l 0.359668,0.0248 0.396875,-0.0248 h 0.868164 q 0.979785,0 0.979785,0.90537 l 0.359668,10.47998 v 0.40928 q 0,1.14102 -0.905371,1.14102 -0.967383,0.31006 -3.050977,0.31006 -1.302246,0 -1.302246,-0.91778 v -0.0992 q 0.136426,-11.81943 0.396875,-11.81943 0.334864,-0.40928 1.302246,-0.40928 z"
         style="font-weight:bold;font-family:MLP;-inkscape-font-specification:'MLP Bold'"
         id="path8018" />
      <path
         d="m 94.658171,184.74652 h 0.173633 q 0.409277,0 1.599902,0.38448 1.103809,-0.38448 1.562695,-0.38448 h 0.173633 q 0.806152,0 1.116211,0.96739 1.079005,2.35644 3.509865,8.65683 l 2.96416,7.61504 q 0.16123,0.55811 0.16123,0.84336 v 0.0124 q 0,0.4961 -1.10381,0.89297 -0.66973,0.23565 -2.40605,0.44649 h -0.58291 q -1.00459,-0.13643 -1.00459,-0.31006 -0.55811,-0.59532 -1.761137,-4.32842 l -0.706934,-2.07119 -1.872754,1.31465 h -0.04961 l -1.934766,-1.31465 h -0.0248 q -1.451074,4.47724 -2.195215,6.01513 -0.322461,0.57051 -0.657324,0.57051 -0.322461,0.12403 -0.620117,0.12403 h -0.334864 q -0.781347,0 -2.517675,-0.38448 -1.240235,-0.44648 -1.240235,-0.95498 v -0.0124 q 0,-0.69453 1.475879,-4.12998 3.063379,-8.11113 5.18418,-13.09688 0.37207,-0.75654 0.644922,-0.75654 0,-0.0496 0.446484,-0.0992 z m -0.880566,7.63985 v 0.0992 q 0,0.91777 1.823144,2.48046 0.79375,0.64493 0.917773,0.64493 0.979786,-0.57051 2.108399,-1.5503 0.669726,-0.69453 0.669726,-1.41386 v -0.19844 q 0,-0.80615 -0.917773,-1.09141 -0.260449,-0.0868 -0.558105,-0.0868 h -0.08682 q -0.607715,0 -1.16582,0.47128 h -0.02481 q -0.818555,-0.48369 -1.401465,-0.48369 -0.731738,0 -1.240234,0.66973 -0.124023,0.24805 -0.124023,0.45889 z"
         style="font-weight:bold;font-family:MLP;-inkscape-font-specification:'MLP Bold'"
         id="path8020" />
      <path
         d="m 113.19968,185.30463 q 3.28662,0 4.31601,0.5209 0.57051,0.062 2.20762,0.80615 1.62471,0.81855 2.48047,3.1626 0.5457,1.68672 0.5457,3.36103 v 0.44649 q 0,3.63388 -2.84013,5.10976 -0.90538,0.43408 -2.84014,0.39688 l -1.98438,-0.0992 q -0.65732,0 -0.76894,0.45888 l -0.0496,0.45889 0.0496,1.38906 q 0,0.91778 -0.44649,1.26504 -0.39687,0.31006 -3.175,1.17823 -0.60771,0.24804 -1.0542,0.24804 -0.60771,0 -0.73173,-1.32705 -0.26045,-1.0914 -0.26045,-5.34541 0,-1.10381 -0.18604,-7.78867 0,-3.02617 0.75654,-3.6835 0.57051,-0.5457 2.55489,-0.5457 z m 6.23838,6.38721 q -0.69454,0 -1.12862,0.76894 -0.64492,-0.33486 -1.10381,-0.33486 -0.91777,0 -1.14101,0.94258 v 0.19843 q 0,1.10381 2.1332,2.14561 0.31006,0.17363 0.44649,0.19844 0.38447,-0.0496 1.35185,-1.40147 0.5457,-0.94258 0.5457,-1.64951 0,-0.86816 -0.93017,-0.86816 h -0.0248 l -0.0124,-0.0248 -0.0248,0.0248 z m 1.79834,5.8291 -0.0124,0.17363 q 0,0.27285 0.59532,1.97197 0.60771,1.30225 0.85576,2.096 0.062,0.27285 0.062,0.48369 v 0.0868 q 0,0.66972 -0.68213,0.85576 -0.96738,0.32246 -2.19521,0.32246 h -0.062 l -0.0744,0.0248 -0.0868,-0.0248 h -0.0372 v 0.0248 l -0.0992,-0.0248 h -0.34727 l -0.0744,-0.0248 -0.0248,0.0248 q -0.86816,-0.0868 -1.28984,-0.28526 -0.75654,-0.43408 -1.30225,-2.40605 -0.19843,-1.079 -0.5581,-1.63711 -0.27285,-0.19844 -0.4961,-0.19844 l -0.24804,0.0372 v -0.0124 q 0,-0.0744 0.21084,-0.0992 h 0.0372 l 1.31465,0.0248 0.69453,0.0992 q 1.99678,0.16123 3.59668,-1.27744 z"
         style="font-weight:bold;font-family:MLP;-inkscape-font-specification:'MLP Bold'"
         id="path8022" />
      <path
         d="m 126.89186,185.54027 0.64493,0.0248 0.52089,-0.0248 q 2.55489,0 2.6045,0.55811 0.42168,0.69453 1.68671,5.17178 0.0372,0.17363 0.0992,0.17363 l 1.0418,-3.39824 q 0.37207,-2.26963 0.94258,-2.26963 0.0372,-0.0496 0.90537,-0.0868 h 1.50068 l 0.71934,-0.0124 q 0.91777,0 1.55029,0.27285 0.19844,0.19844 0.26045,0.34727 0,0.59531 -2.26963,5.17177 -2.36885,4.52686 -2.36885,4.63848 l -0.0372,0.16123 0.0372,0.0992 q 0,1.79834 0.76895,6.21357 v 0.11162 q 0,0.59532 -1.0666,0.81856 -3.89434,0.76894 -5.59346,0.76894 h -0.14883 q -0.68213,0 -0.79375,-0.32246 -0.13642,-0.33486 -0.13642,-0.84336 0,-0.52089 1.0542,-6.33759 0.21084,-0.63252 0.21084,-0.89297 v -0.0992 q 0,-1.0294 -2.90215,-6.8585 -1.17822,-2.38125 -1.17822,-2.79052 0.13642,-0.57051 1.17822,-0.57051 z"
         style="font-weight:bold;font-family:MLP;-inkscape-font-specification:'MLP Bold'"
         id="path8024" />
    </g>
  </g>
</svg>
